<?xml version="1.0" encoding="UTF-8"?>
<svg width="35px" height="38px" viewBox="0 0 35 38" version="1.1" xmlns="http://www.w3.org/2000/svg" xmlns:xlink="http://www.w3.org/1999/xlink">
    <!-- Generator: Sketch 59.1 (86144) - https://sketch.com -->
    <title>crio head </title>
    <desc>Created with Sketch.</desc>
    <g id="For-PDP" stroke="none" stroke-width="1" fill="none" fill-rule="evenodd">
        <g id="PDP" transform="translate(-284.000000, -544.000000)" fill="#FFFFFF" fill-rule="nonzero">
            <g id="Group-4" transform="translate(176.000000, 375.000000)">
                <g id="Group-3" transform="translate(0.562235, 0.000000)">
                    <g id="crio-head-" transform="translate(108.213100, 168.908297)">
                        <path d="M22.5771159,23.6720665 C22.5771159,23.4200025 22.3747705,23.2156642 22.1251648,23.2156642 C21.8755591,23.2156642 21.6732137,23.4200025 21.6732137,23.6720665 C21.6732137,24.6299098 20.9043011,25.4063953 19.9557994,25.4063953 L17.4550032,25.4063953 L17.4550032,22.831121 C18.2023381,22.6424543 19.1724175,22.1412363 19.1724175,21.542189 C19.1724175,20.7779805 18.1508841,20.1729821 16.9126619,20.1729821 C15.6744397,20.1729821 14.6529063,20.7779805 14.6529063,21.542189 C14.6529063,22.1992183 15.7512177,22.7385638 16.551101,22.8769253 L16.551101,25.4063953 L14.0503048,25.4063953 C13.1018031,25.4063953 12.3328906,24.6299098 12.3328906,23.6720665 C12.3328906,23.4200025 12.1305452,23.2156642 11.8809394,23.2156642 C11.6313337,23.2156642 11.4289883,23.4200025 11.4289883,23.6720665 C11.4289883,24.9722816 12.3572577,26.0535525 13.5810538,26.2769047 C13.603469,26.4492848 13.6352557,26.6826494 13.6764668,26.9774471 C13.7745725,27.6792334 13.9263436,28.7309662 14.1318314,30.1330248 C14.2076132,30.6501463 14.6438816,31.0352615 15.1615012,31.041963 L16.7970726,31.0631384 C16.8971932,31.0644346 16.971423,31.0612685 17.0278698,31.0491356 C17.0667277,31.0607133 17.1077532,31.0671607 17.15017,31.0677099 L18.8249766,31.089482 C19.3505601,31.0961978 19.80086,30.7111047 19.8807854,30.1864736 L20.4779492,26.26668 C21.6754969,26.0222377 22.5771159,24.9534813 22.5771159,23.6720665 Z M20.9768728,7.36689939 L31.5496693,13.4649401 C33.0103381,14.3074057 33.8357309,15.9457171 33.6500844,17.6340262 L32.5385279,27.7427549 C32.3840034,29.1480336 31.5490628,30.3843055 30.3099306,31.0425732 L18.8162465,37.1483953 C17.5868794,37.8014754 16.1179241,37.8014754 14.888557,37.1483953 L3.39487289,31.0425732 C2.15574069,30.3843055 1.32080009,29.1480336 1.16627555,27.7427549 L0.0547191201,17.6340262 C-0.130927451,15.9457171 0.694465422,14.3074057 2.15513416,13.4649401 L13.7892715,6.75475299 L12.4741903,2.78336902 L14.749269,4.0420723 L13.5360291,0.0641987593 L16.7390153,3.40802147 L16.2878459,1.08761706 L20.9768728,7.36689939 Z M8.2653305,17.6131105 C8.2653305,18.1297924 8.46619766,18.5775833 8.80097627,18.9220379 C9.13575488,19.2664925 9.57096706,19.4731652 10.073135,19.4731652 C10.2740021,19.4731652 10.4413914,19.4387198 10.6087807,19.4042743 C11.3452937,19.1631561 11.8809394,18.474247 11.8809394,17.647556 C11.8809394,16.6486377 11.0774708,15.8219468 10.1066128,15.8219468 C9.67140065,15.8219468 9.26966632,15.994174 8.96836557,16.2352922 C8.49967552,16.5108559 8.2653305,17.0275378 8.2653305,17.6131105 Z M21.5225633,17.6131105 C21.5225633,18.1297924 21.7234305,18.5775833 22.0582091,18.9220379 C22.3929877,19.2664925 22.8281999,19.4731652 23.3303678,19.4731652 C23.5312349,19.4731652 23.6986242,19.4387198 23.8660135,19.4042743 C24.6025265,19.1631561 25.1381722,18.474247 25.1381722,17.647556 C25.1381722,16.6486377 24.3347036,15.8219468 23.3638456,15.8219468 C22.9286334,15.8219468 22.5268991,15.994174 22.2255984,16.2352922 C21.7569083,16.5108559 21.5225633,17.0275378 21.5225633,17.6131105 Z M31.7969187,12.1098746 C31.7969187,12.1098746 32.0379593,11.6230455 31.7969187,11.0753627 C31.4052278,10.1929849 30.712236,8.61079025 30.0192443,8.18481476 C29.2659925,7.75883927 27.2472775,7.91097338 26.3132452,8.00225384 C26.252985,8.00225384 25.7407737,8.12396112 25.6503835,8.30652205 C25.5901234,8.45865615 24.9573918,9.52359487 24.9573918,9.52359487 L25.5599933,9.8582899 L31.2244473,13.1139597 L31.7969187,12.1098746 Z M24.5499984,7.80750968 L24.5724172,7.76223053 C24.8882515,7.12434071 25.6793433,6.81387654 26.2357794,6.7870836 C28.2568751,6.59144701 29.6875306,6.60230931 30.6081106,7.1229114 L30.6458859,7.14519291 C31.2850232,7.53806459 31.7763336,8.2532208 32.3162196,9.32747277 C32.503947,9.70100801 32.6238177,9.96282938 32.8982471,10.5810626 C33.161433,11.179063 33.161433,11.7729644 33.0071617,12.3052494 C32.9655995,12.448652 32.9188401,12.5653903 32.874885,12.6541661 L32.8590463,12.6861556 L31.6705357,14.7707415 L30.6283001,14.171712 L24.9791834,10.9247085 L23.280118,9.98101889 L23.9239388,8.89741607 C23.9450273,8.86192233 23.9824383,8.79873167 24.0306778,8.71686414 C24.1110607,8.58044573 24.1913996,8.44320054 24.2660775,8.31436943 C24.2726177,8.30308417 24.2726177,8.30308417 24.2791494,8.29180394 C24.3607436,8.15086034 24.4295901,8.03020476 24.4811594,7.93746456 C24.507822,7.88951554 24.5289463,7.85066686 24.5432871,7.82330249 C24.545133,7.81978028 24.5451504,7.81974892 24.5320555,7.85280869 L24.5499984,7.80750968 Z M8.77754177,9.46274123 C8.65702147,9.24975349 8.17494028,8.42822933 8.11468013,8.30652205 C8.0242899,8.0935343 7.51207864,8.00225384 7.45181849,8.00225384 C6.4876561,7.91097338 4.49907118,7.75883927 3.74581932,8.18481476 C3.0528276,8.58036343 2.35983589,10.1929849 1.96814492,11.0753627 C1.72710432,11.6230455 1.96814492,12.1098746 1.96814492,12.1098746 L2.54061634,13.0835329 L8.77754177,9.46274123 Z M17.4659927,26.3365451 C18.5462147,26.3434726 19.1356322,26.3469864 19.5509394,26.3485533 L19.5509394,26.3485533 L18.987394,30.0476751 C18.9759761,30.1226224 18.9116475,30.1776357 18.8365641,30.1766763 L18.8365641,30.1766763 L17.5931771,30.1605658 Z M14.4986801,26.3200265 C14.9899174,26.3214812 15.6283008,26.3249007 16.5430079,26.3306375 C16.4980198,27.7013697 16.4598724,28.7406583 16.4285946,29.4479509 C16.4158526,29.7360885 16.4042691,29.9686527 16.3938948,30.1450389 L16.3938948,30.1450389 L15.1730888,30.1292334 C15.0991425,30.128276 15.0368199,30.0732608 15.0259942,29.9993882 C14.8207761,28.5991694 14.6692594,27.5491995 14.5714944,26.8498507 C14.5424493,26.6420802 14.5181715,26.4654181 14.4986801,26.3200265 Z M7.51930369,6.78625466 C8.1164694,6.80514187 8.86963242,7.07542318 9.1973418,7.77101516 C9.22259656,7.81705411 9.33711423,8.01722937 9.49378326,8.28764134 L9.49684974,8.29293393 C9.52690934,8.34481347 9.65559781,8.56668378 9.68629137,8.61967815 C9.75333736,8.73543727 9.79598544,8.8094823 9.82395099,8.85890401 L10.420348,9.912878 L2.11102407,14.7367822 L0.909634536,12.6934613 L0.890178602,12.6541661 C0.846223568,12.5653903 0.799464126,12.448652 0.757901958,12.3052494 C0.603630633,11.7729644 0.603630633,11.179063 0.868385961,10.5775119 C1.18912811,9.85496332 1.26019659,9.69850202 1.44311812,9.33086981 C1.9942525,8.22321041 2.48761878,7.50494581 3.15695308,7.1229114 C4.0767129,6.6027731 5.44419036,6.59177719 7.51930369,6.78625466 Z" id="Combined-Shape"></path>
                    </g>
                </g>
            </g>
        </g>
    </g>
</svg>