<?xml version="1.0" encoding="UTF-8"?>
<svg  width="30px" height="33px" viewBox="0 0 30 33" version="1.1" xmlns="http://www.w3.org/2000/svg" xmlns:xlink="http://www.w3.org/1999/xlink">
    <!-- Generator: sketchtool 59.1 (101010) - https://sketch.com -->
    <title>F7456F7F-2833-4A2A-ACEB-19CAF555F3FB</title>
    <desc>Created with sketchtool.</desc>
    <g id="Page-1" stroke="none" stroke-width="1" fill="none" fill-rule="evenodd" stroke-linejoin="round">
        <g id="Github-Portfolio-V3-1" transform="translate(-28.000000, -24.000000)" fill="#000000" fill-rule="nonzero" stroke="#000000" stroke-width="0.5">
            <g id="crio-head--copy" transform="translate(29.000000, 24.000000)">
                <path d="M19.146855,20.1057016 C19.146855,19.8910306 18.9750334,19.7170054 18.7630808,19.7170054 C18.5511281,19.7170054 18.3793065,19.8910306 18.3793065,20.1057016 C18.3793065,20.9214514 17.7263844,21.5827473 16.9209643,21.5827473 L14.7974133,21.5827473 L14.7974133,19.3895082 C15.4320127,19.2288298 16.2557555,18.8019662 16.2557555,18.291786 C16.2557555,17.6409458 15.3883205,17.1256974 14.3368842,17.1256974 C13.2854479,17.1256974 12.4180129,17.6409458 12.4180129,18.291786 C12.4180129,18.8513466 13.350644,19.3106817 14.0298648,19.4285176 L14.0298648,21.5827473 L11.9063139,21.5827473 C11.1008937,21.5827473 10.4479716,20.9214514 10.4479716,20.1057016 C10.4479716,19.8910306 10.27615,19.7170054 10.0641974,19.7170054 C9.85224469,19.7170054 9.6804231,19.8910306 9.6804231,20.1057016 C9.6804231,21.2130332 10.468663,22.1339004 11.5078494,22.3241188 C11.5268832,22.4709269 11.553875,22.6696724 11.5888693,22.9207377 C11.6721758,23.5184158 11.8010522,24.4141267 11.9755421,25.6081934 C12.0398922,26.0486013 12.4103495,26.3765858 12.8498862,26.3822931 L14.2387316,26.4003272 C14.3237489,26.401431 14.3867812,26.3987345 14.434713,26.3884016 C14.4677092,26.3982617 14.502546,26.4037527 14.5385642,26.4042206 L15.9607261,26.4227628 C16.4070253,26.4284823 16.7893975,26.1005167 16.8572661,25.6537132 L17.3643477,22.315411 C18.3812452,22.1072311 19.146855,21.1970219 19.146855,20.1057016 Z M17.0976514,7.01368447 L15.6676535,5.0930674 L15.8606169,6.0884203 L13.7058589,3.83228705 L14.1946837,5.43973005 L14.1325921,5.47564798 L12.366843,4.49585565 L12.9216209,6.17615475 L2.31308596,12.3128413 C1.42713827,12.8253327 0.926508048,13.8219557 1.03910932,14.8489934 L1.9829874,23.4581184 C2.07671204,24.3129822 2.5831333,25.0650351 3.33471118,25.4654747 L13.0945724,30.6655139 C13.8402274,31.0627978 14.7312012,31.0627978 15.4768562,30.6655139 L25.2367173,25.4654747 C25.9882953,25.0650351 26.4947165,24.3129822 26.5884411,23.4581184 L27.5323193,14.8489934 C27.6449206,13.8219557 27.1442903,12.8253327 26.2583427,12.3128413 L17.0976514,7.01368447 Z M17.7880086,6.21936389 L26.7658981,11.412776 C28.0062251,12.130264 28.7071073,13.5255362 28.5494655,14.963389 L27.6055876,23.572514 C27.4743731,24.7693231 26.7653831,25.8221974 25.7131741,26.3828128 L15.9533129,31.582852 C14.909396,32.1390493 13.6620326,32.1390493 12.6181157,31.582852 L2.85825443,26.3828128 C1.8060454,25.8221974 1.09705563,24.7693231 0.965841132,23.572514 L0.0219630487,14.963389 C-0.135678727,13.5255362 0.565203586,12.130264 1.80553036,11.412776 L11.6846574,5.69802781 L10.5679563,2.31578838 L12.4998393,3.3877663 L11.4696166,0 L14.1894322,2.84777526 L13.8063217,0.871596841 L17.7880086,6.21936389 Z M6.99400323,14.9455761 C6.99400323,15.3856096 7.16456958,15.7669719 7.44884682,16.0603275 C7.73312405,16.3536831 8.10268446,16.5296965 8.52910029,16.5296965 C8.69966664,16.5296965 8.84180526,16.5003609 8.98394388,16.4710254 C9.60935379,16.2656764 10.0641974,15.6789652 10.0641974,14.9749117 C10.0641974,14.1241804 9.381932,13.4201268 8.55752803,13.4201268 C8.18796762,13.4201268 7.84683494,13.5668047 7.59098544,13.7721536 C7.19299729,14.0068381 6.99400323,14.4468716 6.99400323,14.9455761 Z M18.2513817,14.9455761 C18.2513817,15.3856096 18.4219481,15.7669719 18.7062253,16.0603275 C18.9905025,16.3536831 19.3600629,16.5296965 19.7864788,16.5296965 C19.9570451,16.5296965 20.0991838,16.5003609 20.2413224,16.4710254 C20.8667323,16.2656764 21.3215758,15.6789652 21.3215758,14.9749117 C21.3215758,14.1241804 20.6393105,13.4201268 19.8149065,13.4201268 C19.4453461,13.4201268 19.1042134,13.5668047 18.8483639,13.7721536 C18.4503758,14.0068381 18.2513817,14.4468716 18.2513817,14.9455761 Z M26.97585,10.258731 C26.97585,10.258731 27.1805297,9.84412173 26.97585,9.37768629 C26.6432458,8.62620694 26.0547917,7.27872676 25.4663379,6.91594363 C24.8267141,6.5531605 23.1125225,6.6827259 22.319389,6.76046514 C22.2682191,6.76046514 21.8332748,6.86411747 21.7565199,7.01959594 C21.70535,7.14916136 21.1680662,8.05611917 21.1680662,8.05611917 L21.6797653,8.34116306 L26.489736,11.1138627 L26.97585,10.258731 Z M20.8221281,6.59461079 L20.841165,6.55604868 C21.1093557,6.01278816 21.7811113,5.74838054 22.253609,5.72556228 C23.9698223,5.55894787 25.1846632,5.56819876 25.9663736,6.01157089 L25.9984506,6.030547 C26.5411739,6.36513717 26.9583702,6.97420181 27.4168144,7.88909128 C27.5762231,8.20721354 27.6780112,8.43019437 27.911043,8.95671432 C28.1345272,9.46600292 28.1345272,9.97180056 28.0035279,10.4251224 C27.9682352,10.5472516 27.9285295,10.6466721 27.891205,10.7222783 L27.8777555,10.7495222 L26.8685319,12.5248651 L25.9835176,12.0147001 L21.1865705,9.2493812 L19.7438092,8.44568553 L20.2905096,7.52283237 C20.3084169,7.49260405 20.3401845,7.43878755 20.381147,7.36906485 C20.4494041,7.25288376 20.5176239,7.13599855 20.5810366,7.02627919 C20.5865902,7.01666807 20.5865902,7.01666807 20.5921366,7.00706125 C20.6614223,6.88702626 20.7198834,6.78426963 20.7636735,6.70528718 C20.786314,6.66445128 20.8042517,6.6313657 20.8164292,6.60806078 C20.8179966,6.60506106 20.8180114,6.60503435 20.8068919,6.6331898 L20.8221281,6.59461079 Z M7.42894741,8.004293 C7.32660759,7.82290144 6.91724838,7.12324827 6.86607848,7.01959594 C6.78932363,6.8382044 6.35437946,6.76046514 6.30320956,6.76046514 C5.48449113,6.6827259 3.79588434,6.5531605 3.15626058,6.91594363 C2.5678067,7.25281367 1.97935282,8.62620694 1.64674846,9.37768629 C1.44206885,9.84412173 1.64674846,10.258731 1.64674846,10.258731 L2.13286253,11.0879496 L7.42894741,8.004293 Z M7.78542059,6.56353013 C7.80686567,6.60273932 7.90410833,6.7732191 8.03714382,7.00351614 L8.03974774,7.00802361 C8.06527283,7.05220695 8.17454864,7.24116336 8.20061208,7.28629615 C8.25754417,7.38488271 8.29375881,7.44794337 8.31750573,7.49003349 L8.82393624,8.38765316 L1.76807428,12.4959437 L0.747914427,10.7557441 L0.73139342,10.7222783 C0.694069006,10.6466721 0.654363228,10.5472516 0.619070716,10.4251224 C0.488071229,9.97180056 0.488071229,9.46600292 0.712888201,8.95369034 C0.98524638,8.33832996 1.04559417,8.2050793 1.20092198,7.89198438 C1.6689177,6.94864337 2.08785966,6.33693148 2.65622485,6.01157089 C3.43723884,5.56859375 4.59843224,5.55922907 6.36051461,5.72485629 C6.86759784,5.74094164 7.50714619,5.97112741 7.78542059,6.56353013 Z M12.348882,22.8120697 C12.3242183,22.6351214 12.3036028,22.4846668 12.2870517,22.3608436 C12.7041859,22.3620824 13.2462691,22.3649947 14.0229926,22.3698805 C13.9847909,23.5372682 13.952398,24.4223811 13.9258385,25.0247486 C13.9150186,25.2701417 13.9051825,25.4682056 13.8963731,25.6184254 L12.8597258,25.6049646 C12.7969343,25.6041493 12.7440131,25.5572954 12.7348204,25.4943815 C12.5605595,24.3018816 12.4318991,23.4076719 12.348882,22.8120697 Z M14.9147436,25.6316489 L14.806745,22.3749117 C15.7240154,22.3808116 16.2245193,22.3838042 16.5771774,22.3851386 L16.0986428,25.5355052 C16.0889473,25.5993344 16.0343227,25.6461866 15.9705657,25.6453694 L14.9147436,25.6316489 Z" id="Combined-Shape"></path>
            </g>
        </g>
    </g>
</svg>